<?xml version="1.0" encoding="UTF-8" standalone="no"?>
<svg
   id="logo-38"
   width="78"
   height="32"
   viewBox="0 0 78 32"
   fill="none"
   version="1.1"
   sodipodi:docname="logo.svg"
   inkscape:version="1.1 (c68e22c387, 2021-05-23)"
   xmlns:inkscape="http://www.inkscape.org/namespaces/inkscape"
   xmlns:sodipodi="http://sodipodi.sourceforge.net/DTD/sodipodi-0.dtd"
   xmlns="http://www.w3.org/2000/svg"
   xmlns:svg="http://www.w3.org/2000/svg">
  <defs
     id="defs11" />
  <sodipodi:namedview
     id="namedview9"
     pagecolor="#ffffff"
     bordercolor="#666666"
     borderopacity="1.0"
     inkscape:pageshadow="2"
     inkscape:pageopacity="0.0"
     inkscape:pagecheckerboard="0"
     showgrid="false"
     inkscape:zoom="13.564103"
     inkscape:cx="39.036862"
     inkscape:cy="16.034972"
     inkscape:window-width="2560"
     inkscape:window-height="1377"
     inkscape:window-x="3432"
     inkscape:window-y="-8"
     inkscape:window-maximized="1"
     inkscape:current-layer="logo-38" />
  <path
     d="M55.5 0H77.5L58.5 32H36.5L55.5 0Z"
     class="ccustom"
     fill="#FF7A00"
     id="path2" />
  <path
     d="M35.5 0H51.5L32.5 32H16.5L35.5 0Z"
     class="ccompli1"
     fill="#FF9736"
     id="path4" />
  <path
     d="M19.5 0H31.5L12.5 32H0.5L19.5 0Z"
     class="ccompli2"
     fill="#FFBC7D"
     id="path6" />
  <path
     style="fill:#000000;stroke-width:0.073724"
     d="m 36.763624,31.639326 c 0.114931,-0.196559 4.389024,-7.395816 9.497985,-15.998352 L 55.550628,0 h 10.92979 c 6.011384,0 10.92979,0.01577535 10.92979,0.03505633 0,0.01928099 -4.260252,7.21013637 -9.467227,15.97967867 l -9.467228,15.944622 -10.960548,0.01867 -10.960548,0.01867 z"
     id="path883" />
  <path
     style="fill:#000000;stroke-width:0.073724"
     d="m 36.640832,31.974514 c 0,-0.0247 4.260932,-7.22078 9.468738,-15.991283 L 55.578307,0.036862 60.135562,0.01982001 c 2.50649,-0.0093731 7.399662,0.0072148 10.873716,0.036862 l 6.316461,0.053904 -0.353755,0.58979206 C 76.777419,1.0247637 75.548445,3.0982514 74.24093,5.3081285 72.933416,7.5180057 68.845473,14.410279 65.156614,20.624291 l -6.707018,11.298204 -9.632644,2.21e-4 c -5.297953,1.29e-4 -10.204925,0.02194 -10.904381,0.04847 -0.699457,0.02653 -1.271739,0.02803 -1.271739,0.0033 z"
     id="path996" />
  <path
     style="fill:#000000;stroke-width:0.073724"
     d="m 36.640821,31.943623 c 10e-6,-0.0141 6.560822,-11.071694 15.650561,-26.3774604 L 55.575105,0.036862 60.133961,0.01982001 c 2.507371,-0.0093731 7.400773,0.0072148 10.874227,0.036862 l 6.315372,0.053904 -0.720114,1.21644609 C 75.318582,3.4974787 64.866667,21.122682 61.651532,26.540643 c -1.720445,2.899196 -3.149946,5.294035 -3.176669,5.321864 -0.04169,0.04341 -21.834072,0.124374 -21.834042,0.08112 z"
     id="path1035" />
  <path
     style="fill:#000000;stroke-width:0.073724"
     d="m 36.640821,31.941651 c 1.2e-5,-0.01916 2.922284,-4.946362 12.669721,-21.362256 L 55.570492,0.036862 60.168517,0.0197511 C 62.69743,0.0103401 67.592801,0.026928 71.047121,0.05661311 L 77.3277,0.11058601 76.716237,1.1427221 C 74.856948,4.2811617 64.533913,21.687287 61.762826,26.356333 c -1.780844,3.000567 -3.260094,5.478345 -3.287223,5.506174 -0.04358,0.04471 -21.83481,0.123691 -21.834782,0.07914 z"
     id="path1213" />
  <path
     style="fill:#666666;stroke-width:0.073724"
     d="m 16.587902,31.965108 c 0,-0.01711 4.26626,-7.216261 9.480578,-15.99811 L 35.549058,0 h 7.951139 7.95114 L 50.625952,1.3915774 C 50.17199,2.156945 45.90241,9.3544862 41.137996,17.386114 l -8.662571,14.602959 -7.943761,0.0036 c -4.369069,0.002 -7.943762,-0.01043 -7.943762,-0.02754 z"
     id="path1252" />
  <path
     style="fill:#b3b3b3;stroke-width:0.073724"
     d="m 0.58979206,31.961599 c 0,-0.01952 4.26025074,-7.210573 9.46722394,-15.980115 L 19.52424,0.036862 25.473389,0.01799317 c 4.750761,-0.01506792 5.941713,-2.1675e-4 5.912235,0.07372401 -0.0203,0.05092606 -4.282649,7.24197852 -9.471881,15.98011682 l -9.434965,15.887523 -5.9444933,0.01887 c -3.269471,0.01038 -5.94449264,0.0029 -5.94449264,-0.01663 z"
     id="path1328" />
</svg>
