<?xml version="1.0" encoding="UTF-8" standalone="no"?>
<!-- Generator: Adobe Illustrator 19.0.0, SVG Export Plug-In . SVG Version: 6.00 Build 0)  -->

<svg
   version="1.1"
   id="Capa_1"
   x="0px"
   y="0px"
   viewBox="0 0 511 511"
   style="enable-background:new 0 0 511 511;"
   xml:space="preserve"
   sodipodi:docname="rest-api.svg"
   inkscape:version="1.1 (c68e22c387, 2021-05-23)"
   xmlns:inkscape="http://www.inkscape.org/namespaces/inkscape"
   xmlns:sodipodi="http://sodipodi.sourceforge.net/DTD/sodipodi-0.dtd"
   xmlns="http://www.w3.org/2000/svg"
   xmlns:svg="http://www.w3.org/2000/svg"><defs
   id="defs55" /><sodipodi:namedview
   id="namedview53"
   pagecolor="#ffffff"
   bordercolor="#666666"
   borderopacity="1.0"
   inkscape:pageshadow="2"
   inkscape:pageopacity="0.0"
   inkscape:pagecheckerboard="0"
   showgrid="false"
   inkscape:zoom="2"
   inkscape:cx="393.25"
   inkscape:cy="231.25"
   inkscape:window-width="2560"
   inkscape:window-height="1377"
   inkscape:window-x="3432"
   inkscape:window-y="-8"
   inkscape:window-maximized="1"
   inkscape:current-layer="Capa_1" />
<g
   id="g20">
	<path
   d="M492.168,309.579l-17.626-10.177c2.96-14.723,4.458-29.466,4.458-43.902c0-14.646-1.474-29.403-4.384-43.946l17.552-10.134   c5.436-3.138,9.325-8.206,10.949-14.269s0.791-12.396-2.348-17.832l-48-83.139c-3.139-5.436-8.206-9.325-14.269-10.949   c-6.064-1.624-12.396-0.791-17.833,2.348l-17.566,10.142C380.912,68.2,354.798,53.092,327,43.692V23.5   C327,10.542,316.458,0,303.5,0h-96C194.542,0,184,10.542,184,23.5v20.193c-27.65,9.362-53.728,24.49-75.999,44.088L90.332,77.579   c-5.437-3.139-11.77-3.973-17.833-2.348c-6.063,1.625-11.13,5.513-14.269,10.949l-48,83.139   c-3.139,5.436-3.972,11.769-2.348,17.832s5.513,11.131,10.949,14.269l17.626,10.177C33.499,226.32,32,241.063,32,255.5   c0,14.644,1.474,29.401,4.384,43.945l-17.552,10.134c-11.222,6.479-15.08,20.879-8.602,32.102l48,83.139   c6.479,11.221,20.879,15.08,32.102,8.601l17.565-10.142c22.19,19.521,48.303,34.629,76.103,44.03V487.5   c0,12.958,10.542,23.5,23.5,23.5h96c12.958,0,23.5-10.542,23.5-23.5v-20.193c27.651-9.362,53.729-24.49,76-44.087l17.668,10.201   c11.221,6.479,25.623,2.62,32.102-8.601l48-83.139C507.248,330.458,503.39,316.058,492.168,309.579z M487.779,334.181l-48,83.138   c-2.343,4.06-7.552,5.455-11.611,3.111l-22.392-12.928c-2.845-1.643-6.43-1.242-8.842,0.989   c-22.893,21.173-50.437,37.148-79.653,46.199c-3.14,0.973-5.281,3.877-5.281,7.164V487.5c0,4.687-3.813,8.5-8.5,8.5h-96   c-4.687,0-8.5-3.813-8.5-8.5v-25.645c0-3.287-2.141-6.191-5.28-7.164c-29.396-9.107-56.974-25.062-79.755-46.139   c-1.421-1.315-3.25-1.995-5.095-1.995c-1.286,0-2.579,0.33-3.748,1.005L82.832,420.43c-4.06,2.343-9.268,0.948-11.611-3.111   l-48-83.138c-2.343-4.059-0.947-9.268,3.111-11.612l22.272-12.859c2.844-1.642,4.289-4.942,3.566-8.146   C48.739,286.357,47,270.858,47,255.5c0-15.1,1.765-30.584,5.247-46.022c0.722-3.203-0.723-6.504-3.566-8.145L26.332,188.43   c-1.966-1.135-3.372-2.968-3.96-5.161c-0.587-2.193-0.286-4.484,0.849-6.45l48-83.139c1.135-1.966,2.968-3.373,5.162-3.96   c2.192-0.588,4.484-0.286,6.45,0.849l22.392,12.928c2.846,1.644,6.43,1.242,8.842-0.989c22.894-21.173,50.437-37.148,79.653-46.199   c3.14-0.973,5.281-3.877,5.281-7.164V23.5c0-4.687,3.813-8.5,8.5-8.5h96c4.687,0,8.5,3.813,8.5,8.5v25.645   c0,3.287,2.141,6.191,5.28,7.164c29.395,9.106,56.973,25.061,79.755,46.139c2.412,2.232,5.997,2.633,8.843,0.99l22.29-12.869   c1.967-1.135,4.258-1.437,6.45-0.849c2.193,0.588,4.026,1.994,5.162,3.96l48,83.139c1.135,1.966,1.437,4.257,0.849,6.45   c-0.588,2.193-1.994,4.026-3.96,5.161l-22.272,12.859c-2.844,1.642-4.289,4.943-3.566,8.146c3.431,15.206,5.17,30.704,5.17,46.065   c0,15.1-1.765,30.584-5.247,46.021c-0.722,3.203,0.723,6.503,3.566,8.145l22.349,12.903   C488.727,324.913,490.123,330.122,487.779,334.181z"
   id="path2"
   style="fill:#0000ff" />
	<path
   d="M255.5,104C171.962,104,104,171.963,104,255.5S171.962,407,255.5,407S407,339.037,407,255.5S339.038,104,255.5,104z    M255.5,392C180.234,392,119,330.766,119,255.5S180.234,119,255.5,119S392,180.234,392,255.5S330.766,392,255.5,392z"
   id="path4"
   style="fill:#0000ff" />
	<path
   d="M283.5,216h-28c-4.142,0-7.5,3.358-7.5,7.5v64c0,4.142,3.358,7.5,7.5,7.5s7.5-3.358,7.5-7.5V271h20.5   c15.164,0,27.5-12.336,27.5-27.5S298.664,216,283.5,216z M283.5,256H263v-25h20.5c6.893,0,12.5,5.607,12.5,12.5   S290.393,256,283.5,256z"
   id="path6"
   style="fill:#0000ff" />
	<path
   d="M214.522,220.867c-1.098-2.927-3.896-4.867-7.022-4.867h-8c-3.126,0-5.925,1.939-7.022,4.867l-24,64   c-1.455,3.878,0.511,8.201,4.389,9.656c3.878,1.455,8.201-0.511,9.656-4.389L186.697,279h33.605l4.175,11.133   c1.129,3.011,3.987,4.869,7.023,4.869c0.875,0,1.765-0.154,2.632-0.479c3.878-1.454,5.844-5.778,4.389-9.656L214.522,220.867z    M192.322,264l11.178-29.807L214.678,264H192.322z"
   id="path8" />
	<path
   d="M327.5,216c-4.142,0-7.5,3.358-7.5,7.5v64c0,4.142,3.358,7.5,7.5,7.5s7.5-3.358,7.5-7.5v-64   C335,219.358,331.642,216,327.5,216z"
   id="path10"
   style="fill:#0000ff" />
	<path
   d="M309.152,87.3c5.205,1.659,10.394,3.586,15.421,5.726c0.958,0.408,1.954,0.601,2.934,0.601c2.916,0,5.69-1.712,6.904-4.564   c1.622-3.811-0.152-8.216-3.963-9.838c-5.458-2.323-11.09-4.415-16.742-6.216c-3.945-1.258-8.165,0.922-9.423,4.868   C303.026,81.823,305.206,86.042,309.152,87.3z"
   id="path12" />
	<path
   d="M100.45,339.904c-1.984-3.636-6.541-4.976-10.176-2.992c-3.636,1.984-4.976,6.54-2.992,10.176   c3.112,5.704,6.557,11.315,10.239,16.677c1.454,2.117,3.801,3.255,6.189,3.255c1.463,0,2.941-0.427,4.239-1.318   c3.415-2.345,4.282-7.014,1.937-10.428C106.493,350.332,103.318,345.161,100.45,339.904z"
   id="path14" />
	<path
   d="M240.14,431.341c-40.189-3.463-78.337-20.879-107.416-49.041c-2.976-2.882-7.724-2.805-10.605,0.17   c-2.881,2.976-2.806,7.724,0.17,10.605c31.55,30.555,72.947,49.452,116.563,53.21c0.219,0.019,0.436,0.028,0.652,0.028   c3.851,0,7.127-2.949,7.464-6.856C247.323,435.331,244.266,431.697,240.14,431.341z"
   id="path16" />
	<path
   d="M363.425,97.287c-3.42-2.337-8.087-1.459-10.424,1.96c-2.337,3.42-1.459,8.087,1.96,10.424   c34.844,23.813,60.049,59.248,70.972,99.776c0.902,3.346,3.93,5.55,7.237,5.55c0.646,0,1.303-0.084,1.956-0.26   c4-1.078,6.368-5.194,5.29-9.193C428.564,161.564,401.221,123.118,363.425,97.287z"
   id="path18"
   style="fill:#0000ff" />
</g>
<g
   id="g22">
</g>
<g
   id="g24">
</g>
<g
   id="g26">
</g>
<g
   id="g28">
</g>
<g
   id="g30">
</g>
<g
   id="g32">
</g>
<g
   id="g34">
</g>
<g
   id="g36">
</g>
<g
   id="g38">
</g>
<g
   id="g40">
</g>
<g
   id="g42">
</g>
<g
   id="g44">
</g>
<g
   id="g46">
</g>
<g
   id="g48">
</g>
<g
   id="g50">
</g>
<path
   style="fill:#0000ff"
   d="m 204.14485,510.36536 c -7.43625,-1.08944 -14.26904,-6.23664 -17.59222,-13.25235 l -1.87852,-3.96582 -0.29267,-13.07323 -0.29267,-13.07323 -6.73138,-2.50971 c -22.59496,-8.42422 -45.00723,-21.37508 -63.51073,-36.69948 -3.0497,-2.52572 -5.77389,-4.59223 -6.05374,-4.59223 -0.27987,0 -4.82675,2.50898 -10.104201,5.57552 -5.277448,3.06653 -11.021691,5.99528 -12.764979,6.50833 -7.633281,2.24647 -17.146696,-0.3155 -22.746375,-6.1256 -2.028987,-2.10524 -9.391252,-14.36 -27.642428,-46.01186 C 20.852663,359.41741 9.1711977,338.63804 8.5761248,336.96932 c -1.7042124,-4.779 -1.1709641,-12.00005 1.249191,-16.91608 2.6593142,-5.40184 6.4830782,-8.67287 17.5590752,-15.02088 7.30625,-4.18745 9.462851,-5.6876 9.237184,-6.42545 -0.161919,-0.52942 -0.681019,-3.20647 -1.153554,-5.94899 -4.35427,-25.27155 -3.905512,-57.13196 1.12659,-79.98432 0.244156,-1.10879 -0.911178,-1.94959 -9.23136,-6.71812 C 16.320021,199.6263 12.482488,196.34425 9.8332976,190.96298 7.4916329,186.20638 6.8893029,179.14697 8.4246189,174.45301 9.4668053,171.2667 58.03387,86.705385 60.900457,83.086025 c 5.241328,-6.61772 15.902896,-9.818242 24.306305,-7.296571 1.587624,0.476412 7.204509,3.373835 12.481957,6.438717 5.277451,3.064882 9.886981,5.565826 10.243411,5.557655 0.35643,-0.0082 2.22847,-1.347864 4.16008,-2.977082 19.27033,-16.253528 42.26256,-29.748091 65.26518,-38.305323 l 6.73138,-2.504151 0.29267,-13.073232 0.29267,-13.073232 1.87852,-3.965819 c 3.43208,-7.2456277 10.08704,-12.1240565 18.12431,-13.28606271 5.32606,-0.77002785 96.31967,-0.77008464 101.64567,-6.345e-5 8.12216,1.17428136 14.65656,5.96423766 18.12476,13.28612616 l 1.87852,3.965819 0.29267,13.073232 0.29267,13.073232 6.73138,2.506399 c 22.78598,8.484252 45.23413,21.492422 63.93249,37.047373 2.80831,2.336207 5.33493,4.247645 5.61471,4.247645 0.27978,0 4.69882,-2.426325 9.82009,-5.391828 5.12128,-2.965504 10.62842,-5.854328 12.2381,-6.419606 8.1998,-2.87957 19.46094,0.290573 24.74883,6.96709 2.93754,3.708941 51.51341,88.240187 52.57855,91.496667 1.53532,4.69396 0.93299,11.75337 -1.40868,16.50997 -2.65052,5.38396 -6.48575,8.66275 -17.55109,15.00466 -7.31701,4.19362 -9.46237,5.68651 -9.23369,6.42545 0.52058,1.68212 2.59756,15.35503 3.34718,22.03475 1.92594,17.16159 0.35906,47.30319 -3.32169,63.89856 -0.24604,1.10934 0.90507,1.94724 9.22934,6.71812 11.05387,6.33528 14.87995,9.60958 17.53793,15.00872 1.55074,3.15 1.90298,4.63413 2.10559,8.87177 0.21089,4.41097 0.0494,5.56908 -1.21233,8.69275 -0.80061,1.98209 -12.48606,22.74312 -25.96769,46.13562 -17.97017,31.18074 -25.25014,43.29802 -27.27762,45.40274 -5.35067,5.55452 -14.42022,8.18034 -21.98586,6.36538 -1.6408,-0.39362 -7.36606,-3.25077 -13.04854,-6.51177 -5.56874,-3.19573 -10.3402,-5.81042 -10.60325,-5.81042 -0.26305,0 -3.39303,2.35188 -6.9555,5.22639 -19.4228,15.67202 -40.67036,27.91769 -62.58687,36.07088 l -6.73138,2.50415 -0.29267,13.07323 -0.29267,13.07323 -1.82003,3.84084 c -3.46911,7.32091 -10.17851,12.25313 -18.2578,13.42167 -4.81367,0.69622 -97.32257,0.65605 -102.10321,-0.0443 z m 104.13918,-15.52334 c 0.90882,-0.67752 2.1792,-2.12623 2.82307,-3.21936 1.06624,-1.81019 1.19679,-3.34773 1.46335,-17.23482 0.33158,-17.27452 0.41638,-17.61348 4.80473,-19.20555 15.60915,-5.6629 20.44774,-7.65929 30.02287,-12.38734 18.4646,-9.11754 29.95042,-16.93595 49.85508,-33.93642 1.66476,-1.42186 2.57473,-1.7502 4.78201,-1.7255 2.38672,0.0267 4.07389,0.82175 13.55478,6.38729 5.95581,3.49623 11.96592,6.86104 13.3558,7.47735 3.37283,1.49561 6.61265,0.96088 9.21884,-1.52158 2.80202,-2.669 50.43572,-85.49124 50.89103,-88.48587 0.26913,-1.77013 0.0318,-2.94985 -0.99697,-4.957 -1.25575,-2.44987 -2.19923,-3.12813 -13.49515,-9.70167 -6.67975,-3.8872 -12.79982,-7.68281 -13.60015,-8.43468 -2.10303,-1.9757 -2.31629,-4.3658 -0.97331,-10.90853 3.26283,-15.89598 4.45263,-29.93668 3.9869,-47.04905 -0.3835,-14.09061 -1.20586,-21.88016 -3.66226,-34.68944 -1.66229,-8.66821 -1.53764,-10.1956 1.02095,-12.5111 0.63416,-0.57391 6.60249,-4.21473 13.26295,-8.09071 11.25492,-6.54968 12.20549,-7.23321 13.46347,-9.68126 0.95469,-1.85786 1.27361,-3.27586 1.08229,-4.8122 -0.29804,-2.3934 -47.8703,-85.495875 -50.61182,-88.412198 -1.75038,-1.861977 -5.31506,-3.007396 -7.71734,-2.479766 -0.90839,0.199518 -5.56173,2.619328 -10.34077,5.377359 -18.19451,10.500245 -18.22552,10.512395 -21.5933,8.458655 -0.9805,-0.59792 -3.61452,-2.72776 -5.85338,-4.732986 C 386.92683,92.901445 374.39968,83.618231 365.98656,78.326876 356.38996,72.291182 338.55,63.531992 328.0819,59.716174 c -4.5071,-1.64292 -9.32513,-3.397231 -10.70672,-3.898466 -4.38835,-1.592065 -4.47315,-1.931022 -4.80473,-19.205546 -0.26656,-13.887096 -0.39711,-15.424635 -1.46335,-17.234825 -0.64387,-1.093124 -1.91435,-2.541835 -2.82328,-3.219359 -1.65043,-1.230243 -1.71978,-1.231861 -52.78382,-1.231861 -51.06404,0 -51.13339,0.0016 -52.78382,1.231861 -0.90893,0.677524 -2.17941,2.126235 -2.82328,3.219359 -1.06624,1.81019 -1.19679,3.347729 -1.46335,17.234825 -0.33158,17.274524 -0.41638,17.613481 -4.80473,19.205546 -14.53488,5.273167 -20.1795,7.54827 -27.75459,11.186696 -17.00476,8.167635 -31.57705,17.633223 -45.48028,29.542209 -8.82101,7.555747 -8.50635,7.355147 -11.46324,7.308127 -2.3365,-0.0372 -4.21828,-0.93743 -14.394637,-6.886654 -6.438717,-3.76415 -12.639073,-7.12838 -13.778567,-7.476053 -2.756415,-0.841031 -6.283503,0.117717 -8.278692,2.250349 -2.088872,2.23276 -49.71907,84.811388 -50.441984,87.453538 -0.655259,2.39489 0.595795,6.65693 2.426064,8.26502 0.551818,0.48484 6.139646,3.83852 12.417395,7.45265 6.277749,3.61412 12.135164,7.24687 13.016479,8.07277 2.251577,2.10999 2.481488,4.37886 1.117226,11.0253 -3.262837,15.89598 -4.452635,29.93668 -3.986901,47.04905 0.383494,14.09061 1.205858,21.88016 3.66226,34.68944 1.717127,8.95422 1.554688,10.36021 -1.488209,12.88112 -0.866474,0.71783 -6.651551,4.20258 -12.855727,7.74387 -12.961231,7.39817 -14.349435,8.69465 -14.349435,13.40133 0,2.90052 0.899887,4.57054 24.48356,45.43666 13.465958,23.33401 25.1654,43.15403 25.998751,44.04449 1.730581,1.84916 5.303044,3.00854 7.66908,2.48887 0.885569,-0.1945 7.364628,-3.63482 14.397896,-7.64514 7.603431,-4.33542 13.423551,-7.2915 14.356001,-7.2915 1.93361,0 4.60018,1.77941 10.63284,7.09532 6.45303,5.68632 16.92372,13.38612 25.62408,18.84307 9.58964,6.01473 27.47609,14.79614 37.76391,18.54031 4.5071,1.64032 9.33649,3.39684 10.73197,3.90338 4.54602,1.65014 4.77261,2.5039 4.79126,18.05377 0.009,7.40453 0.25579,14.496 0.54867,15.75883 0.69068,2.97799 2.25101,5.06163 4.7492,6.34201 1.87583,0.9614 5.30551,1.01882 52.44975,0.878 50.24829,-0.15008 50.44904,-0.1554 52.09508,-1.38252 z"
   id="path964" /><path
   style="fill:#0000ff"
   d="m 242.42857,406.16307 c -15.7815,-1.4036 -32.88116,-5.8094 -47.62377,-12.27045 -29.47179,-12.9162 -55.69999,-36.8449 -71.49344,-65.22538 -27.942968,-50.21287 -24.781257,-112.20963 8.12036,-159.22912 5.91249,-8.44949 10.99864,-14.37778 19.0892,-22.24987 19.68335,-19.15186 42.06397,-31.66374 68.65762,-38.38302 46.42915,-11.731017 96.9022,0.0269 133.48755,31.09664 6.08598,5.16845 16.63643,16.01276 21.34942,21.94406 31.99759,40.26903 41.18594,94.47693 24.26608,143.16089 -13.50746,38.86534 -43.93889,71.96821 -81.4343,88.58306 -23.43037,10.38239 -49.50986,14.78858 -74.41872,12.57319 z m 35.31427,-15.69992 c 29.2961,-5.15169 53.76278,-17.77681 74.35314,-38.36717 20.9103,-20.91029 33.70939,-46.07683 38.70727,-76.10915 1.66294,-9.99262 1.50474,-32.4768 -0.29997,-42.63199 -3.58743,-20.18665 -10.30061,-37.17846 -21.13261,-53.48896 -21.40369,-32.22905 -55.13257,-53.72221 -93.67651,-59.69379 -9.47988,-1.46871 -30.99825,-1.46146 -40.36745,0.0136 -23.854,3.7555 -45.19104,12.97157 -64.40804,27.81964 -6.15323,4.75432 -17.2873,15.78687 -22.23808,22.03533 -14.97865,18.90482 -24.69904,41.17566 -28.4949,65.28605 -1.48372,9.42417 -1.48372,30.92241 0,40.34658 4.67636,29.70312 17.72759,55.45864 38.71833,76.40747 22.93821,22.8924 51.45888,36.33492 84.30388,39.73456 1.28775,0.13329 8.0045,0.16149 14.92612,0.0627 9.55086,-0.13636 14.27811,-0.47744 19.60882,-1.41485 z"
   id="path1003" /><path
   style="fill:#0000ff;stroke-width:0.585338"
   d="m 102.39995,366.40857 c -3.057643,-0.83947 -4.075209,-1.89433 -8.376011,-8.68297 -6.243961,-9.85585 -7.647984,-12.88715 -7.16398,-15.46711 0.583621,-3.11097 3.768656,-5.68919 7.028206,-5.68919 3.462683,0 4.801918,1.21231 8.861355,8.02155 1.8801,3.15364 4.42208,7.28929 5.64885,9.19033 2.85652,4.42656 3.04906,7.62123 0.62082,10.3008 -1.82927,2.01859 -4.42189,2.92987 -6.61924,2.32659 z"
   id="path1042" /><path
   style="fill:#0000ff;stroke-width:0.585338"
   d="m 235.01317,445.63718 c -39.88146,-4.88077 -74.82291,-20.14869 -104.53658,-45.67799 -8.4507,-7.26064 -9.89698,-9.00789 -9.89698,-11.95654 0,-4.16186 3.22761,-7.57087 7.11252,-7.51226 2.02346,0.0305 3.29129,0.89093 9.9633,6.76154 11.70327,10.29755 22.87394,18.01643 36.26851,25.06137 17.78891,9.35617 40.01215,16.27167 59.33322,18.4635 7.94604,0.90142 9.90107,1.50475 11.66362,3.59942 2.80404,3.33241 1.58471,8.89147 -2.36096,10.76381 -1.78486,0.84697 -3.67227,0.97131 -7.54665,0.49715 z"
   id="path1081" /><path
   style="fill:#0000ff;stroke-width:0.585338"
   d="m 430.51604,213.99807 c -0.96581,-0.42632 -2.17332,-1.27207 -2.68336,-1.87944 -0.51003,-0.60737 -2.39952,-5.61291 -4.19888,-11.12343 -11.97689,-36.67931 -35.05071,-67.96398 -66.7393,-90.48858 -3.22356,-2.29134 -3.98664,-3.16106 -4.52383,-5.15604 -0.54318,-2.0172 -0.47783,-2.7382 0.40995,-4.52268 2.18722,-4.39642 6.36362,-5.565019 10.68106,-2.988667 10.34161,6.171157 32.64581,27.044737 42.43716,39.715177 9.79736,12.67822 17.60844,25.57169 23.85393,39.37486 4.39954,9.72344 10.41924,27.42385 10.42044,30.64042 0.001,2.87801 -1.6561,5.26711 -4.46861,6.44225 -2.34713,0.98069 -2.939,0.97911 -5.18856,-0.0139 z"
   id="path1120" /><path
   style="fill:#0000ff;stroke-width:0.585338"
   d="m 317.83849,90.149336 c -4.0242,-1.526158 -8.24322,-3.198168 -9.37559,-3.715578 -6.74071,-3.079989 -4.53749,-13.266519 2.86939,-13.266519 1.98638,0 14.19138,4.138646 18.31854,6.211716 3.07882,1.546485 4.40922,3.126819 4.91874,5.84277 0.41419,2.207842 -0.80657,4.865562 -3.04288,6.624645 -2.32631,1.829876 -5.38989,1.45006 -13.6882,-1.697034 z"
   id="path1159" /><path
   style="fill:#0000ff"
   d="m 170.56747,292.43482 c -1.61441,-1.6144 -1.99015,-2.44206 -1.99015,-4.38375 0,-3.20091 24.06468,-67.64948 25.99362,-69.61455 3.39288,-3.45641 14.73269,-3.24693 17.93994,0.33142 1.0097,1.12653 5.53219,12.44244 13.90177,34.78423 6.82287,18.21298 12.40522,33.55619 12.40522,34.09603 0,1.53899 -1.58309,4.21443 -3.2866,5.55441 -1.02719,0.80799 -2.40492,1.22236 -4.06415,1.22236 -3.96477,0 -5.61275,-1.81799 -8.51736,-9.39605 l -2.45616,-6.40807 h -17.03697 -17.03697 l -1.3915,3.95103 c -3.49141,9.9135 -5.13457,11.85309 -10.04159,11.85309 -1.98189,0 -2.79525,-0.3663 -4.4191,-1.99015 z m 44.25154,-28.72577 c 0,-0.41052 -10.55722,-28.54921 -10.94919,-29.18344 -0.5445,-0.881 -1.03458,0.32061 -10.16599,24.92542 l -1.68355,4.53637 h 11.39937 c 6.26965,0 11.39936,-0.12526 11.39936,-0.27835 z"
   id="path1198" /><path
   style="fill:#0000ff;stroke-width:0.585338"
   d="m 251.46988,293.20261 c -3.37181,-2.65227 -3.28679,-1.67328 -3.28442,-37.81988 0.002,-31.9219 0.0477,-33.32154 1.14274,-35.11754 2.32311,-3.81002 2.9649,-3.96246 17.57889,-4.17563 17.04134,-0.24857 22.70321,0.36257 28.30054,3.05478 10.46061,5.03135 16.97213,17.16111 15.14186,28.20647 -1.25922,7.59914 -6.62792,15.74006 -12.74373,19.32416 -5.67048,3.32312 -8.40858,3.84224 -22.05794,4.18203 l -12.7311,0.31692 v 8.7279 c 0,9.46515 -0.38351,11.01722 -3.2866,13.30079 -1.01964,0.80205 -2.40539,1.22236 -4.03012,1.22236 -1.62473,0 -3.01048,-0.42031 -4.03012,-1.22236 z m 38.2464,-38.58062 c 1.43441,-0.80484 3.40993,-2.60549 4.39003,-4.00145 1.61785,-2.3043 1.78201,-2.96018 1.78201,-7.11997 0,-4.15978 -0.16416,-4.81566 -1.78201,-7.11996 -0.9801,-1.39596 -2.95562,-3.19662 -4.39003,-4.00146 -2.51121,-1.40902 -3.05894,-1.47035 -14.75379,-1.65206 l -12.14577,-0.18871 v 12.96219 12.9622 l 12.14577,-0.18872 c 11.69485,-0.18171 12.24258,-0.24304 14.75379,-1.65206 z"
   id="path1237" /><path
   style="fill:#0000ff;stroke-width:0.585338"
   d="m 323.46644,293.20261 c -3.37086,-2.65152 -3.2866,-1.68488 -3.2866,-37.70261 0,-28.10504 0.13139,-33.38381 0.86631,-34.80499 2.86874,-5.54753 10.03209,-5.54753 12.90083,0 1.29645,2.50707 1.29645,67.10291 0,69.60998 -1.37957,2.66778 -3.65319,4.11998 -6.45042,4.11998 -1.62472,0 -3.01047,-0.42031 -4.03012,-1.22236 z"
   id="path1276" /><path
   style="fill:#0000ff;stroke-width:0.0258685"
   d="m 108.24685,104.45543 c -0.99247,-0.10164 -2.02619,-0.42361 -2.86723,-0.89305 -0.20287,-0.11324 -12.768859,-7.364987 -21.591465,-12.460293 -0.59045,-0.341001 -1.223519,-0.695176 -1.406822,-0.787055 -0.936347,-0.469335 -1.931762,-0.758584 -2.964959,-0.86156 -0.349512,-0.03483 -1.279655,-0.03462 -1.629717,3.78e-4 -2.013991,0.201344 -3.830175,1.055008 -5.225443,2.456124 -0.177846,0.178592 -0.415931,0.437689 -0.529078,0.575772 -0.113147,0.138083 -0.210119,0.246663 -0.215493,0.241289 -0.01329,-0.01329 0.3242,-0.516394 0.540588,-0.80588 0.27687,-0.370401 0.848328,-0.873335 1.426049,-1.255051 0.961794,-0.635484 2.030495,-1.069684 3.201606,-1.300773 1.038915,-0.205003 2.189721,-0.21058 3.145594,-0.01524 0.588653,0.120294 0.848546,0.21644 1.727621,0.639122 2.392198,1.150231 7.28118,3.850314 12.833637,7.087752 4.137544,2.412453 6.418602,3.710565 8.148582,4.637225 0.711,0.38085 2.18122,1.10329 2.6774,1.31563 0.75558,0.32335 1.43505,0.55486 1.97894,0.67427 0.4564,0.1002 0.78247,0.13418 1.52441,0.15886 1.43304,0.0477 2.01612,-0.0424 2.79051,-0.43085 1.13418,-0.56897 2.21755,-1.4244 7.1707,-5.661971 1.70767,-1.460957 2.33867,-1.997456 3.18183,-2.705293 2.56143,-2.150322 5.45662,-4.459633 8.00277,-6.383322 l 0.65611,-0.495707 h 0.22921 0.22922 l -0.89826,0.67758 c -5.60648,4.229132 -10.51113,8.310492 -15.78582,13.136023 -0.76214,0.69725 -0.88177,0.80044 -1.20717,1.04136 -0.96628,0.7154 -2.13174,1.18751 -3.40854,1.38077 -0.31226,0.0473 -1.39726,0.0685 -1.73478,0.0339 z"
   id="path1354" /><path
   style="fill:#0000ff;stroke-width:0.0182918"
   d="m 184.76557,17.594063 c 0,-0.05634 0.26238,-0.950994 0.41383,-1.411043 0.87982,-2.672601 2.21305,-5.130074 3.98665,-7.3483476 0.89115,-1.11458 1.97367,-2.2326641 3.07937,-3.18053 3.15826,-2.7074392 6.98869,-4.5314798 11.06464,-5.2689561 0.96438,-0.17448845 1.82178,-0.27393835 3.0307,-0.35153053 0.23493,-0.01507838 2.18039,-0.02320765 6.79084,-0.02837614 l 6.46158,-0.00724366 v 0.0903758 0.09037578 l -0.46187,0.0110377 c -0.25403,0.006071 -1.13272,0.0195959 -1.95265,0.0300559 -6.25903,0.079848 -10.78936,0.20544192 -12.18332,0.33775748 -0.89242,0.0847093 -2.62702,0.44569947 -3.77629,0.78589197 -1.4183,0.4198303 -2.6536,0.9060439 -3.96017,1.5587288 -0.79017,0.3947223 -1.27764,0.6671742 -1.98466,1.1092461 -3.09135,1.9328979 -5.70203,4.6008617 -7.60888,7.7758295 -0.54068,0.900251 -0.77211,1.356786 -1.9676,3.881357 -0.50453,1.065446 -0.92066,1.940605 -0.92475,1.944797 -0.004,0.0042 -0.007,-0.0046 -0.007,-0.01943 z"
   id="path1393" /><path
   style="fill:#0000ff;stroke-width:0.0182918"
   d="m 184.02088,25.594815 c 0.005,-2.269082 0.0136,-3.353626 0.0285,-3.544038 0.0901,-1.154243 0.18167,-1.895788 0.34316,-2.780355 0.0599,-0.327838 0.17965,-0.902612 0.23446,-1.124947 l 0.0248,-0.100605 0.002,0.137189 c 0.001,0.09167 -0.22781,10.479852 -0.23546,10.677844 -9e-5,0.0025 -0.0911,0.0046 -0.20226,0.0046 h -0.20209 z"
   id="path1432" /><path
   style="fill:#0000ff;stroke-width:0.0182918"
   d="m 198.61247,28.841381 c 0,-0.20583 0.0851,-2.47629 0.11915,-3.177972 0.176,-3.629791 0.41472,-4.96102 1.10552,-6.165027 0.76741,-1.337532 2.28507,-3.003637 3.28697,-3.608458 0.24241,-0.146341 0.56498,-0.267053 0.9408,-0.352072 0.18018,-0.04076 0.73277,-0.137199 0.77529,-0.135305 0.0104,4.64e-4 -0.0881,0.04028 -0.21887,0.08849 -1.40782,0.51889 -2.61793,1.354845 -3.57406,2.468992 -1.19161,1.38854 -1.88673,3.0688 -2.03207,4.911965 -0.0115,0.146184 -0.0186,1.330352 -0.0186,3.11418 v 2.878304 h -0.19206 c -0.14248,0 -0.19207,-0.006 -0.19207,-0.0231 z"
   id="path1471" /><path
   style="fill:#0000ff;stroke-width:0.0258685"
   d="m 178.04013,61.681539 c 2.52157,-1.028714 8.11657,-3.133587 14.53811,-5.469321 1.67507,-0.609284 1.82374,-0.665302 2.2635,-0.852882 0.70137,-0.299183 1.13738,-0.570251 1.53022,-0.951363 0.3092,-0.299963 0.52489,-0.599262 0.72237,-1.002402 0.69045,-1.409492 0.98321,-3.655652 1.16152,-8.911707 0.0577,-1.700828 0.10307,-3.634383 0.19483,-8.303797 0.073,-3.712985 0.13282,-6.346957 0.15739,-6.926297 l 0.0167,-0.394495 h 0.17828 0.17829 l -0.008,10.522022 -0.008,10.522023 -0.0555,0.329995 c -0.14643,0.869959 -0.36552,1.544507 -0.7468,2.29935 -0.2056,0.407049 -0.54445,0.935302 -0.82729,1.289737 -0.22582,0.282976 -0.86543,0.922578 -1.1484,1.148397 -0.53648,0.428121 -1.27842,0.86002 -1.91224,1.113154 -0.1613,0.06442 -0.64973,0.228789 -1.08539,0.365255 -4.6821,1.466642 -9.42196,3.145347 -13.955,4.942407 l -1.00468,0.398293 -0.23701,-0.0011 -0.23701,-0.0011 0.28456,-0.116087 z"
   id="path1510" /><path
   style="fill:#0000ff;stroke-width:0.00390625"
   d="m 184,32.128906 c 0,-3.299479 6.6e-4,-3.714844 0.006,-3.714844 0.005,0 0.006,0.02784 0.006,0.227081 v 0.227081 l 0.20125,-0.0018 c 0.11648,-10e-4 0.20266,-0.0033 0.20459,-0.0054 0.002,-0.002 0.006,-0.102947 0.008,-0.224333 0.003,-0.121387 0.006,-0.221436 0.006,-0.222331 8.3e-4,-8.95e-4 0.002,-8.95e-4 0.003,0 7e-4,8.95e-4 -0.0361,1.663639 -0.0818,3.694987 -0.0457,2.031348 -0.0832,3.702588 -0.0833,3.713867 l -2.2e-4,0.02051 H 184.13477 184 Z"
   id="path1549" /><path
   style="fill:#0000ff;stroke-width:0.00390625"
   d="M 184,37.923828 V 35.84375 h 0.13528 0.13529 l -0.003,0.0791 c -0.001,0.04351 -0.0218,0.950976 -0.0454,2.016601 -0.0235,1.065625 -0.0439,1.966065 -0.0452,2.000977 l -0.002,0.06348 H 184.08747 184 Z"
   id="path1588" /><path
   style="fill:#0000ff;stroke-width:0.0220971"
   d="m 105.53569,234.00703 c 0,-0.10871 0.31091,-2.12926 0.53195,-3.45707 2.17693,-13.07679 6.05815,-25.76153 11.5768,-37.83574 l 0.31561,-0.69053 h 0.2096 c 0.18937,0 0.20846,0.004 0.19782,0.0387 -0.006,0.0213 -0.14754,0.33201 -0.31349,0.69054 -1.19869,2.58975 -2.54137,5.77102 -3.64655,8.63996 -3.80636,9.88091 -6.53698,20.05648 -8.2068,30.58237 -0.0988,0.62258 -0.31139,2.03228 -0.31139,2.06453 0,0.007 -0.0795,0.0126 -0.17678,0.0126 -0.1635,0 -0.17677,-0.003 -0.17677,-0.0453 z"
   id="path1627" /><path
   style="fill:#0000ff;stroke-width:0.00390625"
   d="m 123.06447,221.49902 c 9.4e-4,-0.003 0.0344,-0.12968 0.0744,-0.28222 0.52143,-1.99084 1.11524,-4.06523 1.73098,-6.04688 0.12038,-0.38745 0.28504,-0.90998 0.33388,-1.05957 l 0.0118,-0.0361 h 0.10361 c 0.0813,0 0.10321,0.001 0.10174,0.005 -0.004,0.01 -0.168,0.52967 -0.23666,0.74902 -0.66267,2.11699 -1.32814,4.44791 -1.85654,6.5029 l -0.0444,0.17281 -0.11023,4e-5 c -0.0865,4e-5 -0.10985,-0.001 -0.1085,-0.005 z"
   id="path1666" /><path
   style="fill:#0000ff;stroke-width:0.0110485"
   d="m 104.48759,267.63715 c -0.26534,-3.3574 -0.41038,-6.44473 -0.4657,-9.91283 -0.0143,-0.89558 -0.0143,-3.561 -5e-5,-4.44979 0.034,-2.11537 0.0903,-3.78217 0.20071,-5.93355 l 0.0135,-0.2624 h 0.17475 0.17475 l -1e-4,0.0635 c -6e-5,0.0349 -0.005,0.14556 -0.0108,0.24583 -0.0486,0.82779 -0.11355,2.35985 -0.14903,3.51343 -0.0436,1.41631 -0.0601,2.38341 -0.0682,3.98853 -0.0213,4.22926 0.13549,8.40027 0.47694,12.68574 0.0211,0.26545 0.0384,0.49042 0.0384,0.49995 0,0.015 -0.0234,0.0173 -0.17458,0.0173 h -0.17458 z"
   id="path1705" /><path
   style="fill:#0000ff;stroke-width:0.0110485"
   d="m 105.64155,277.78524 c -0.01,-0.0463 -0.1532,-1.05246 -0.22725,-1.59375 -0.35553,-2.59859 -0.63685,-5.13113 -0.85973,-7.73951 l -0.0302,-0.35355 0.17061,-0.003 c 0.10532,-0.002 0.17323,10e-4 0.17745,0.008 0.004,0.006 0.0155,0.11932 0.0262,0.25164 0.025,0.31089 0.11804,1.33294 0.16781,1.84262 0.23087,2.36432 0.54194,4.91837 0.87327,7.16998 0.033,0.22455 0.0601,0.41721 0.0601,0.42813 0,0.0183 -0.014,0.0199 -0.1759,0.0199 h -0.1759 z"
   id="path1744" /><path
   style="fill:#0000ff;stroke-width:0.0110485"
   d="m 107.2154,286.59645 c -0.10345,-0.47836 -0.37529,-1.83535 -0.5258,-2.62478 -0.3643,-1.91078 -0.71857,-3.98351 -0.98323,-5.75277 -0.0273,-0.1823 -0.0525,-0.34762 -0.0561,-0.36737 l -0.007,-0.0359 h 0.18211 0.18211 l 0.007,0.058 c 0.0128,0.10022 0.14792,0.9763 0.22877,1.48327 0.35147,2.20378 0.81282,4.71599 1.25738,6.84688 0.0491,0.23522 0.0892,0.43285 0.0892,0.43917 0,0.008 -0.063,0.0115 -0.18139,0.0115 h -0.18138 z"
   id="path1783" /><path
   style="fill:#0000ff;stroke-width:0.0220971"
   d="m 104.25406,246.94971 c 0,-0.24969 0.14508,-2.4194 0.24405,-3.64973 0.23882,-2.96893 0.51754,-5.50915 0.9753,-8.88856 l 0.0486,-0.35908 h 0.18535 0.18535 l -0.0121,0.0608 c -0.007,0.0334 -0.042,0.27456 -0.0786,0.53586 -0.52819,3.77539 -0.93946,7.86162 -1.16095,11.53467 -0.0187,0.30992 -0.0397,0.63557 -0.0467,0.72368 l -0.0127,0.16021 h -0.16384 -0.16384 z"
   id="path1822" /><path
   style="fill:#0000ff;stroke-width:0.00390625"
   d="m 119.21875,247.30063 c 0,-0.0108 0.002,-0.0622 0.004,-0.11426 0.002,-0.052 0.007,-0.18862 0.0118,-0.30356 0.0806,-2.12247 0.20001,-4.22846 0.34382,-6.06445 0.0236,-0.30118 0.074,-0.90898 0.0762,-0.91895 l 0.002,-0.009 h 0.11321 c 0.11111,0 0.1132,1.5e-4 0.1132,0.008 0,0.004 -0.0193,0.18146 -0.0429,0.39356 -0.21663,1.94791 -0.38536,3.82417 -0.51944,5.77626 -0.0263,0.38228 -0.0694,1.05642 -0.0768,1.20019 l -0.003,0.0518 h -0.0111 c -0.0108,0 -0.0111,-6.4e-4 -0.0111,-0.0197 z"
   id="path1861" /><path
   style="fill:#0000ff;stroke-width:0.00390625"
   d="m 119.19369,248.06445 c 0.002,-0.10858 0.02,-0.66416 0.0234,-0.71191 0.002,-0.0318 0.002,-0.0322 0.0128,-0.0322 h 0.0105 l -0.007,0.11426 c -0.004,0.0628 -0.0138,0.2417 -0.0225,0.39746 -0.0193,0.3481 -0.0193,0.34753 -0.0175,0.23242 z"
   id="path1900" /><path
   style="fill:#0000ff;stroke-width:0.0220971"
   d="m 117.98784,191.97808 c 0.0169,-0.0533 0.49023,-1.06049 0.92873,-1.97628 0.40633,-0.84861 1.5252,-3.0864 1.99973,-3.99957 2.26638,-4.36132 4.58034,-8.34419 7.29838,-12.5622 0.37185,-0.57705 1.93168,-2.91823 2.38074,-3.57329 l 0.23038,-0.33607 0.26219,-9.1e-4 0.26218,-9.1e-4 -0.0375,0.0572 c -0.0206,0.0315 -0.23165,0.33724 -0.46895,0.67948 -0.60464,0.87204 -2.08353,3.09359 -2.71638,4.08046 -2.52993,3.94523 -4.70794,7.70361 -6.86708,11.84983 -0.77138,1.48129 -2.17113,4.31625 -2.76565,5.60134 l -0.10478,0.2265 h -0.20823 c -0.20032,0 -0.20768,-0.002 -0.19376,-0.0456 z"
   id="path1939" /><path
   style="fill:#0000ff;stroke-width:0.015625"
   d="m 187.17354,235.03516 c 0.009,-0.0236 1.21809,-3.24691 2.68668,-7.16283 1.46858,-3.91593 2.71267,-7.21925 2.76463,-7.34073 0.57001,-1.33263 1.54904,-2.4946 2.7814,-3.30113 1.04136,-0.68153 2.19292,-1.07824 3.48437,-1.20033 0.10616,-0.01 0.70402,-0.0192 1.46094,-0.0223 0.84748,-0.004 1.22571,-4.9e-4 1.11719,0.009 -2.30348,0.20092 -4.08216,0.65232 -5.48803,1.39278 -0.68394,0.36023 -1.30927,0.84196 -1.53364,1.18147 -0.69871,1.05729 -2.88924,6.28217 -6.35375,15.15505 l -0.5201,1.33203 h -0.2081 -0.20811 z"
   id="path1978" /><path
   style="fill:#0000ff;stroke-width:0.0110485"
   d="m 183.1184,245.85495 c -9e-5,-0.005 0.9082,-2.43082 2.01842,-5.39169 l 2.01858,-5.3834 h 0.20786 c 0.11433,0 0.20786,0.003 0.20786,0.006 0,0.003 -0.0949,0.25061 -0.21099,0.54967 -1.06776,2.75167 -2.35365,6.10723 -3.56907,9.31352 l -0.34657,0.91426 h -0.16296 c -0.0896,10e-6 -0.16304,-0.004 -0.16313,-0.008 z"
   id="path2017" /><path
   style="fill:#0000ff;stroke-width:0.0110485"
   d="m 176.82073,262.64874 c -9e-5,-0.005 1.41533,-3.78316 3.14538,-8.3969 l 3.14553,-8.3886 h 0.16495 c 0.15179,0 0.16452,0.002 0.15956,0.0193 -0.003,0.0106 -0.0752,0.2033 -0.16043,0.42813 -1.5578,4.10723 -4.07207,10.85835 -5.83161,15.65855 l -0.25211,0.68777 h -0.18555 c -0.10206,0 -0.18563,-0.004 -0.18572,-0.008 z"
   id="path2056" /><path
   style="fill:#0000ff;stroke-width:0.015625"
   d="m 213.8539,261.7694 c -0.029,-0.0469 -10.2745,-27.39945 -10.26739,-27.41096 0.0136,-0.022 0.0811,-0.0177 0.13135,0.008 0.10787,0.0558 0.18713,0.2188 0.54341,1.11765 1.33034,3.35626 5.53473,14.49251 8.46813,22.42969 0.64717,1.75112 1.41122,3.84124 1.41122,3.86049 0,0.012 -0.2792,0.007 -0.28672,-0.005 z"
   id="path2095" /><path
   style="fill:#0000ff;stroke-width:0.015625"
   d="m 192.84883,261.77005 c 0.004,-0.007 0.47873,-1.28147 1.05452,-2.83261 6.53538,-17.606 8.02601,-21.50647 9.00179,-23.55463 0.17198,-0.36098 0.43424,-0.82155 0.40038,-0.70312 -0.005,0.0172 -2.29247,6.12031 -5.08346,13.5625 l -5.07453,13.53125 -0.15317,0.004 c -0.0842,0.002 -0.14973,-0.001 -0.14553,-0.008 z"
   id="path2134" /><path
   style="fill:#0000ff;stroke-width:0.0220971"
   d="m 224.54007,248.53146 c -0.008,-0.0213 -0.21426,-0.56568 -0.45748,-1.20982 -6.38319,-16.90481 -10.06533,-26.08601 -11.29348,-28.15962 -0.17614,-0.29739 -0.32256,-0.47384 -0.61267,-0.73833 -0.41039,-0.37413 -0.85522,-0.66907 -1.49177,-0.98908 -1.39179,-0.6997 -3.23407,-1.17585 -5.36959,-1.3878 -0.13767,-0.0137 0.24175,-0.0206 1.23287,-0.0227 1.59879,-0.003 1.76826,0.006 2.43525,0.14092 1.22688,0.2473 2.36843,0.79809 3.33666,1.60992 0.25266,0.21184 0.77604,0.74126 0.97497,0.98622 0.40937,0.50409 0.80193,1.14186 1.0473,1.70148 0.0916,0.20895 10.53992,28.05381 10.53992,28.08902 0,0.0102 -0.0735,0.0185 -0.16336,0.0185 -0.13504,0 -0.16601,-0.007 -0.17862,-0.0387 z"
   id="path2173" /><path
   style="fill:#0000ff;stroke-width:0.0220971"
   d="m 233.62456,272.95945 c -0.39635,-1.09813 -2.87058,-7.79586 -4.23032,-11.45148 -1.39755,-3.75728 -4.63709,-12.41544 -4.80005,-12.82888 l -0.0429,-0.10896 h 0.17233 0.17233 l 4.63378,12.3578 c 2.54858,6.79678 4.63364,12.36525 4.63347,12.37436 -1.8e-4,0.009 -0.0923,0.0164 -0.20472,0.0162 l -0.2044,-3.5e-4 -0.12947,-0.35873 z"
   id="path2212" /><path
   style="fill:#0000ff;stroke-width:0.0220971"
   d="m 214.22814,262.76791 -0.36772,-0.98563 0.14388,0.006 0.14389,0.006 0.17451,0.48613 c 0.31416,0.87515 0.48889,1.4062 0.46916,1.4259 -0.0106,0.0106 -0.059,0.0253 -0.10761,0.0327 l -0.0884,0.0135 z"
   id="path2251" /><path
   style="fill:#0000ff;stroke-width:0.03125"
   d="m 175,294.96683 c -2.31157,-0.16026 -4.44526,-1.39849 -5.72012,-3.3195 -0.9103,-1.37167 -1.34466,-2.97729 -1.24517,-4.60273 0.0382,-0.62429 0.12975,-1.13226 0.31214,-1.7321 0.053,-0.17438 8.45977,-22.62406 8.4818,-22.6501 0.004,-0.005 0.0842,-0.005 0.17734,0 l 0.16932,0.009 -0.79157,2.17188 c -4.38173,12.02241 -7.30041,20.57967 -7.74378,22.704 -0.0788,0.37735 -0.0833,0.44104 -0.0662,0.92118 0.0568,1.58939 0.44624,2.40093 1.83744,3.82867 1.23471,1.26715 2.02816,1.79402 3.02694,2.00993 0.88281,0.19084 2.66511,0.16381 3.74501,-0.0568 2.93262,-0.59911 4.56266,-2.77074 7.01404,-9.34448 0.42376,-1.1364 0.66411,-1.80751 1.61162,-4.5 l 0.62133,-1.76563 h 17.02665 17.02664 L 221.77088,282 c 1.34037,3.49754 1.61503,4.20216 2.0038,5.14062 1.30066,3.13975 2.43269,5.02351 3.60835,6.00444 1.04514,0.87203 2.10058,1.23221 3.75759,1.28233 1.64906,0.0499 2.98135,-0.26904 4.0625,-0.97248 1.63129,-1.06137 3.41205,-3.78051 3.60859,-5.51011 0.0187,-0.16506 0.0193,-0.31533 0.001,-0.39502 -0.14414,-0.6432 -1.71231,-5.09133 -4.09271,-11.60907 -0.51722,-1.4162 -0.93662,-2.57818 -0.93198,-2.58219 0.005,-0.004 0.093,-0.0131 0.19642,-0.0203 l 0.18799,-0.013 2.17933,5.81397 c 1.19863,3.19768 2.22111,5.93865 2.27218,6.09104 0.23073,0.6884 0.34556,1.44894 0.3455,2.28826 0,1.35579 -0.3478,2.62129 -1.04635,3.80822 -0.57244,0.97266 -1.50622,1.92493 -2.47546,2.52448 -1.32419,0.81911 -2.88965,1.21577 -4.40199,1.1154 -2.71718,-0.18034 -5.0765,-1.76073 -6.27037,-4.20019 -0.11385,-0.23262 -0.99633,-2.54212 -2.31682,-6.06325 l -2.13293,-5.6875 H 203.49956 186.6736 l -2.13292,5.6875 c -1.3205,3.52113 -2.20298,5.83063 -2.31682,6.06325 -0.83054,1.69706 -2.21006,2.97823 -3.96606,3.68332 -1.01396,0.40714 -2.17863,0.59199 -3.25824,0.51714 z"
   id="path2290" /><path
   style="fill:#0000ff;stroke-width:0.015625"
   d="m 192.03879,263.95703 c 0.0269,-0.0676 0.80496,-2.16531 0.80496,-2.17024 0,-0.003 0.0676,-0.006 0.15011,-0.006 0.11355,0 0.14834,0.005 0.14283,0.0195 -0.004,0.0107 -0.18933,0.50633 -0.41183,1.1013 l -0.40455,1.08177 -0.1462,2.6e-4 c -0.13303,2.4e-4 -0.14522,-0.002 -0.13532,-0.0271 z"
   id="path2329" /><path
   style="fill:#0000ff;stroke-width:0.00390625"
   d="m 183.43098,286.88574 c 0.0211,-0.0505 0.20623,-0.51418 0.26165,-0.65527 0.36019,-0.91709 0.77054,-2.02105 1.21822,-3.27735 0.22754,-0.63853 0.41656,-1.17373 1.0423,-2.95117 0.10059,-0.28574 0.18411,-0.5226 0.1856,-0.52636 0.003,-0.006 0.0149,-0.007 0.18198,-0.007 0.0986,0 0.17927,9.1e-4 0.17927,0.002 0,10e-4 -0.4903,1.30936 -1.08956,2.90723 -0.96145,2.56359 -1.19369,3.18212 -1.60233,4.2675 l -0.0952,0.25292 h -0.14361 -0.1436 l 0.005,-0.0127 z"
   id="path2368" /><path
   style="fill:#0000ff;stroke-width:0.00390625"
   d=""
   id="path2407" /><path
   style="fill:#0000ff;stroke-width:0.00390625"
   d="m 183.41511,286.89355 c 0.001,-0.003 0.0556,-0.13935 0.1212,-0.30371 0.30787,-0.77103 0.59621,-1.52879 0.93123,-2.44726 0.26442,-0.72492 0.36221,-1.00042 1.2181,-3.43164 0.24014,-0.68213 0.4371,-1.24083 0.43768,-1.24156 5.9e-4,-7.3e-4 0.004,-7.3e-4 0.007,0 0.004,10e-4 -0.0524,0.16644 -0.24591,0.71617 -0.99138,2.81605 -1.22705,3.47577 -1.60957,4.50586 -0.27866,0.75041 -0.49432,1.31156 -0.73559,1.91406 -0.11988,0.29937 -0.11722,0.29297 -0.12203,0.29297 -0.002,0 -0.003,-0.002 -0.002,-0.005 z"
   id="path2446" /><path
   style="fill:#0000ff;stroke-width:0.00390625"
   d=""
   id="path2485" /><path
   style="fill:#0000ff;stroke-width:0.00390625"
   d="m 183.71875,286.89618 c 0,-0.001 0.0644,-0.17307 0.14311,-0.38184 0.24654,-0.65389 0.8621,-2.29356 1.76917,-4.71258 0.70347,-1.87604 0.87615,-2.33301 0.88161,-2.33301 0.006,0 0.006,10e-4 -4.8e-4,0.0186 -0.004,0.0102 -0.63082,1.68189 -1.39294,3.71485 -1.17515,3.13468 -1.38681,3.69629 -1.39308,3.69629 -0.004,0 -0.007,-10e-4 -0.007,-0.002 z"
   id="path2524" /><path
   style="fill:#0000ff;stroke-width:0.00390625"
   d="m 169.09939,283.21611 c 0.002,-0.004 0.62742,-1.67265 1.39084,-3.7083 0.76343,-2.03564 1.38926,-3.70425 1.39074,-3.70801 0.004,-0.009 0.0191,-0.009 0.0165,0 -0.001,0.004 -0.19211,0.51485 -0.42459,1.13575 -0.45913,1.22622 -1.73019,4.62464 -2.11261,5.64843 l -0.23783,0.63672 -0.0129,10e-4 c -0.0112,10e-4 -0.0125,2.8e-4 -0.0101,-0.006 z"
   id="path2563" /><path
   style="fill:#0000ff;stroke-width:0.00390625"
   d=""
   id="path2602" /><path
   style="fill:#0000ff;stroke-width:0.00390625"
   d="m 169.92969,283.21851 c 0,-0.0119 0.50275,-1.52547 0.75117,-2.26148 0.461,-1.36578 1.03211,-3.0241 1.61029,-4.67578 0.0831,-0.2374 0.15546,-0.44438 0.1608,-0.45996 0.006,-0.0184 0.0118,-0.0283 0.0156,-0.0283 0.004,0 0.005,0.002 0.003,0.007 -0.0104,0.0269 -0.45123,1.28848 -0.63363,1.81348 -0.69095,1.9887 -1.35386,3.94113 -1.81006,5.33106 -0.0798,0.24301 -0.0975,0.29281 -0.0975,0.27417 z"
   id="path2641" /><path
   style="fill:#0000ff;stroke-width:0.0110485"
   d="m 262.82275,247.86953 v -8.59122 h 0.0884 0.0884 v 8.36374 8.36375 h 9.11505 9.11504 v 0.0705 0.0705 l -0.19058,0.007 c -0.4216,0.0159 -2.41618,0.0556 -4.48295,0.0893 -1.91874,0.0313 -2.41892,0.0391 -7.75608,0.12112 -2.93808,0.0451 -5.48491,0.0853 -5.65961,0.0892 l -0.31765,0.007 z"
   id="path2680" /><path
   style="fill:#0000ff;stroke-width:0.03125"
   d="m 262.84375,234.90625 v -4.34375 l 0.39844,1.1e-4 c 0.21914,5e-5 2.15625,0.0279 4.30468,0.0618 2.14844,0.0339 4.82735,0.0762 5.95313,0.0939 6.58556,0.10351 9.08035,0.16304 10.42187,0.24866 0.20625,0.0132 -4.41679,0.026 -10.27343,0.0285 L 263,231 v 4.125 4.125 h -0.0781 -0.0781 z"
   id="path2719" /><path
   style="fill:#0000ff;stroke-width:0.03125"
   d="m 285.04687,255.9214 c 1.61315,-0.20817 3.15394,-0.71204 4.53125,-1.48181 3.17351,-1.77367 5.43252,-4.83745 6.17249,-8.37142 0.10248,-0.48944 0.10401,-0.48685 0.0611,0.1037 -0.11326,1.55852 -0.37503,2.37388 -1.15615,3.60114 -0.64104,1.00716 -1.10942,1.59023 -1.96639,2.44788 -1.39089,1.39198 -2.44328,2.16158 -3.95479,2.8921 -0.9214,0.44532 -1.80173,0.66543 -3.23094,0.80784 -0.59258,0.059 -0.91282,0.0594 -0.45656,5.7e-4 z"
   id="path2758" /><path
   style="fill:#0000ff;stroke-width:0.03125"
   d="m 295.78478,241.10626 c -0.0596,-0.3547 -0.22932,-1.005 -0.39283,-1.50522 -0.86854,-2.65694 -2.62467,-4.96147 -4.97008,-6.52209 -1.56685,-1.04258 -3.37571,-1.73251 -5.15625,-1.96668 -0.54093,-0.0711 -0.5457,-0.0721 -0.38309,-0.0768 0.19087,-0.005 0.98855,0.076 1.50324,0.15352 0.94785,0.14281 1.61585,0.34314 2.37985,0.71372 1.49068,0.72305 2.54594,1.49669 3.92321,2.87618 0.85955,0.86095 1.32648,1.44215 1.96672,2.44806 0.78556,1.23423 1.04388,2.04367 1.1579,3.62822 0.0184,0.25552 0.0284,0.46963 0.0222,0.4758 -0.006,0.006 -0.0291,-0.095 -0.0509,-0.22475 z"
   id="path2797" /><path
   style="fill:#0000ff;stroke-width:0.03125"
   d="m 248.2083,268.67969 c -0.0443,-6.54506 0.008,-34.60074 0.0713,-38.39844 0.10377,-6.20825 0.25162,-8.1234 0.72108,-9.34076 0.1886,-0.48906 1.03455,-1.8058 1.54043,-2.39771 1.51797,-1.77613 3.50672,-2.1778 11.66196,-2.35536 6.96031,-0.15155 14.00616,-0.16378 17.59375,-0.0305 7.46092,0.27709 11.51023,1.08473 15.61929,3.11529 1.06421,0.52589 1.81178,0.95407 2.77134,1.58732 3.04924,2.01232 5.73544,4.71418 7.82395,7.86958 2.37105,3.58227 3.89547,7.61633 4.42446,11.70843 0.14249,1.10225 0.19089,1.90015 0.19141,3.1554 4.4e-4,1.05236 -0.03,1.64915 -0.12979,2.54772 -0.51568,4.6416 -2.60765,9.64681 -5.82528,13.9375 -0.96904,1.29222 -1.75252,2.18858 -2.89534,3.3125 -1.51119,1.4862 -2.7906,2.46755 -4.51129,3.46027 -3.1156,1.79751 -5.20714,2.59097 -8.17187,3.10012 -2.65235,0.45551 -5.86857,0.67882 -12.40625,0.86141 -1.28107,0.0358 -13.62777,0.34383 -13.78062,0.34383 h -0.0944 v 0.29687 0.29688 h -7.29172 -7.29172 z m 22.27607,-12.32083 c 6.16806,-0.0951 8.50047,-0.13387 9.34375,-0.15543 6.10035,-0.15597 7.33952,-0.30306 8.9375,-1.06082 1.21594,-0.5766 2.19276,-1.25639 3.43918,-2.39339 0.92286,-0.84185 1.61432,-1.64992 2.311,-2.70075 0.93316,-1.40752 1.20521,-2.21106 1.33365,-3.9391 0.0554,-0.74568 0.0548,-4.46198 -8.4e-4,-5.21875 -0.13419,-1.82396 -0.43676,-2.65547 -1.55128,-4.2631 -0.87891,-1.26777 -2.05351,-2.46097 -3.47418,-3.52919 -0.52629,-0.39572 -0.89765,-0.63025 -1.56333,-0.98729 -1.49894,-0.80395 -2.59927,-1.03781 -5.58795,-1.1876 -1.68538,-0.0845 -3.68545,-0.13198 -9.29687,-0.22083 -7.455,-0.11804 -10.94619,-0.17123 -11.24219,-0.17129 l -0.32031,-7e-5 v 12.97343 12.97343 l 1.35156,-0.0213 c 0.74336,-0.0117 3.5875,-0.0558 6.32031,-0.0979 z"
   id="path2836" /><path
   style="fill:#0000ff;stroke-width:0.03125"
   d=""
   id="path2875" /><path
   style="fill:#0000ff;stroke-width:0.00552427"
   d="m 281.19234,256.15109 0.0373,-0.002 v -0.0716 -0.0716 l -5.32402,-0.001 -5.32402,-10e-4 6.60703,-0.001 c 4.30272,-9.2e-4 6.65905,-0.003 6.75618,-0.007 1.37293,-0.0512 2.68983,-0.31404 3.94648,-0.78778 0.068,-0.0256 0.12496,-0.0453 0.12652,-0.0438 0.01,0.01 -0.49365,0.18784 -0.79941,0.28257 -0.70817,0.21941 -1.36627,0.36344 -2.14387,0.4692 -0.20178,0.0274 -0.25183,0.037 -0.24567,0.047 0.01,0.0158 0.32926,-0.004 0.7318,-0.0447 0.85952,-0.0875 1.51288,-0.20542 2.08472,-0.37613 0.0867,-0.0259 0.32225,-0.10261 0.36724,-0.11962 0.005,-0.002 0.007,5.7e-4 0.006,0.007 -0.002,0.0118 -0.0423,0.027 -0.21186,0.0809 -1.11161,0.35331 -2.5473,0.51137 -5.56294,0.61243 -0.46034,0.0154 -1.13826,0.0343 -1.05099,0.0293 z"
   id="path2914" /><path
   style="fill:#0000ff;stroke-width:0.00390625"
   d=""
   id="path2953" /><path
   style="fill:#0000ff;stroke-width:0.00390625"
   d="m 273.50391,257.35156 v -1.05469 h 0.0654 c 0.036,0 0.23066,-0.003 0.43261,-0.006 0.37424,-0.006 0.73443,-0.0116 1.61719,-0.0255 3.59484,-0.0565 5.40485,-0.0955 6.89258,-0.1485 1.36888,-0.0487 2.42396,-0.11445 3.20101,-0.19933 0.0579,-0.006 0.10846,-0.0115 0.1123,-0.0115 0.007,0 0.007,0.0512 0.007,1.25 v 1.25 h -6.16406 -6.16406 z"
   id="path2992" /><path
   style="fill:#0000ff;stroke-width:0.00390625"
   d="m 273.50391,257.35218 v -1.05407 l 0.19043,-0.003 c 0.18386,-0.003 0.46508,-0.007 1.79785,-0.0278 1.78749,-0.028 3.2926,-0.0545 4.11718,-0.0723 0.45778,-0.01 0.90519,-0.0201 1.19336,-0.0273 2.35909,-0.0586 3.82903,-0.13353 4.90707,-0.25003 0.0596,-0.006 0.11141,-0.0117 0.11525,-0.0117 0.007,0 0.007,0.0522 0.007,1.25 v 1.25 h -6.16406 -6.16406 z"
   id="path3031" /><path
   style="fill:#0000ff;stroke-width:0.00390625"
   d="m 262.82031,233.52552 v -2.98619 l 0.0889,0.002 c 0.0489,0.001 1.50391,0.0239 3.2334,0.0504 3.40464,0.0523 3.38086,0.0519 3.38086,0.057 0,0.005 -0.0335,0.005 -0.58203,-0.004 -0.26534,-0.004 -0.87793,-0.0139 -1.36133,-0.0213 -0.4834,-0.007 -0.93516,-0.0145 -1.00391,-0.0158 -0.13653,-0.002 -0.8244,-0.0128 -1.96875,-0.0294 -0.83381,-0.0121 -1.14834,-0.0155 -1.44043,-0.0155 l -0.32324,-2e-5 v 2.97461 2.97461 h -0.0117 -0.0117 z"
   id="path3070" /><path
   style="fill:#0000ff;stroke-width:0.00390625"
   d="m 248.02894,222.86035 c 0.0191,-0.24382 0.0644,-0.56412 0.11797,-0.83301 0.34504,-1.73325 1.30056,-3.29413 2.69489,-4.40218 1.07774,-0.85647 2.37091,-1.39911 3.73242,-1.56619 0.37972,-0.0466 0.64269,-0.0587 1.28223,-0.0589 l 0.31152,-1e-4 v 0.21803 0.21803 l -0.0576,0.005 c -0.10294,0.009 -0.40914,0.0391 -0.57519,0.0573 -2.01556,0.22018 -3.22822,0.57456 -4.1211,1.2043 -0.37422,0.26394 -0.70001,0.57758 -1.03668,0.99801 -0.2862,0.3574 -0.59247,0.81151 -1.01477,1.50458 -0.14795,0.2428 -0.20604,0.34716 -0.28764,0.51669 -0.23668,0.49174 -0.38922,1.11876 -0.49677,2.0419 -0.007,0.0559 -0.0129,0.10816 -0.0141,0.11621 l -0.002,0.0146 h -0.26777 -0.26777 z"
   id="path3109" /><path
   style="fill:#0000ff;stroke-width:0.00390625"
   d="m 248.0001,225.41699 c 1e-4,-1.7504 0.002,-2.13201 0.0115,-2.30176 0.007,-0.11768 0.0122,-0.20265 0.0141,-0.21191 l 0.002,-0.009 h 0.26751 c 0.14712,0 0.2675,9.2e-4 0.2675,0.002 0,0.001 -0.006,0.0596 -0.0135,0.12989 -0.0977,0.92271 -0.17442,2.34764 -0.22318,4.14444 l -0.003,0.0986 H 248.16155 248 Z"
   id="path3148" /><path
   style="fill:#0000ff;stroke-width:0.00390625"
   d="m 248,229.76953 v -2.5 h 0.16223 0.16224 l -0.002,0.04 c -0.002,0.0356 -0.009,0.33966 -0.0215,0.86816 -0.0209,0.92324 -0.0444,2.43167 -0.0547,3.51954 -0.002,0.24062 -0.005,0.46782 -0.006,0.50488 l -0.002,0.0674 H 248.11872 248 Z"
   id="path3187" /><path
   style="fill:#0000ff;stroke-width:0.00390625"
   d="m 248,234.61328 v -2.34375 h 0.11974 0.11974 l -0.003,0.28418 c -0.0101,1.09896 -0.0164,1.97461 -0.022,3.05762 -0.002,0.42969 -0.005,0.90825 -0.006,1.06347 l -0.002,0.28223 H 248.10304 248 Z"
   id="path3226" /><path
   style="fill:#0000ff;stroke-width:0.00390625"
   d="m 248,239.45703 v -2.5 h 0.10409 0.10409 l -0.003,0.61817 c -0.005,1.13805 -0.01,2.79617 -0.0101,3.36621 -5e-5,0.31045 -10e-4,0.66596 -0.003,0.79004 l -0.003,0.22558 h -0.094 H 248 Z"
   id="path3265" /><path
   style="fill:#0000ff;stroke-width:0.00390625"
   d="m 248,244.45703 v -2.5 h 0.0964 0.0964 l -0.003,1.51465 c -0.001,0.83306 -0.003,1.95806 -0.003,2.5 v 0.98535 H 248.09375 248 Z"
   id="path3304" /><path
   style="fill:#0000ff;stroke-width:0.00390625"
   d="m 248,249.45703 v -2.5 h 0.0944 0.0944 l -0.003,0.91113 c -0.001,0.50113 -0.003,1.62613 -0.003,2.5 v 1.58887 H 248.0918 248 Z"
   id="path3343" /><path
   style="fill:#0000ff;stroke-width:0.00390625"
   d="m 248,254.30078 v -2.34375 h 0.0918 0.0918 v 2.34375 2.34375 H 248.0918 248 Z"
   id="path3382" /><path
   style="fill:#0000ff;stroke-width:0.00390625"
   d="m 248,259.14453 v -2.5 h 0.0918 0.0918 v 2.5 2.5 H 248.0918 248 Z"
   id="path3421" /><path
   style="fill:#0000ff;stroke-width:0.00390625"
   d="m 248,264.14453 v -2.5 h 0.0918 0.0918 v 2.5 2.5 H 248.0918 248 Z"
   id="path3460" /><path
   style="fill:#0000ff;stroke-width:0.00390625"
   d="m 248,269.14453 v -2.5 h 0.0913 0.0913 l 0.002,0.41504 c 0.001,0.22827 0.003,1.14365 0.004,2.03418 0.001,0.89053 0.003,1.82876 0.005,2.08496 l 0.003,0.46582 H 248.0983 248 Z"
   id="path3499" /><path
   style="fill:#0000ff;stroke-width:0.0220971"
   d="m 250.18518,292.7681 c -1.04303,-1.05504 -1.74866,-2.38292 -2.03344,-3.82659 -0.13077,-0.66291 -0.12045,0.0633 -0.12788,-8.99904 l -0.007,-8.28088 h 0.0851 0.0851 l 0.0149,2.67927 c 0.0628,11.27316 0.33418,14.9343 1.24173,16.75511 0.0909,0.18231 0.2322,0.42593 0.31408,0.54138 0.20111,0.28357 0.71237,0.79189 1.12928,1.12277 l 0.33938,0.26935 h -0.39151 -0.39151 z"
   id="path3538" /></svg>
