<?xml version="1.0" encoding="UTF-8"?>
<!DOCTYPE svg PUBLIC "-//W3C//DTD SVG 1.1//EN" "http://www.w3.org/Graphics/SVG/1.1/DTD/svg11.dtd">
<!-- Creator: CorelDRAW X6 -->
<svg xmlns="http://www.w3.org/2000/svg" xml:space="preserve" width="1000px" height="1000px" version="1.1" style="shape-rendering:geometricPrecision; text-rendering:geometricPrecision; image-rendering:optimizeQuality; fill-rule:evenodd; clip-rule:evenodd"
viewBox="0 0 1000 1000"
 xmlns:xlink="http://www.w3.org/1999/xlink">
 <defs>
  <style type="text/css">
   <![CDATA[
    .fil0 {fill:black}
   ]]>
  </style>
 </defs>
 <g id="Layer_x0020_1">
  <metadata id="CorelCorpID_0Corel-Layer"/>
  <path class="fil0" d="M991 145l0 640c-22,-36 -44,-72 -66,-109 -44,-73 -66,-109 -66,-110l0 -267 -358 294 -359 -294 0 267c0,0 -22,37 -67,110 -22,36 -45,73 -67,109l0 -640 127 0c0,0 47,38 140,114 93,76 169,137 226,185 242,-199 363,-299 364,-299l125 0zm-140 738l0 0 -103 -169 -596 169 -148 0 259 -427 99 82 -126 209 451 -133 -47 -78 100 -81 256 428 -145 0zm-283 -765l0 0 85 142 -100 81 -51 -84 -51 85 -100 -81 87 -143 131 0z"/>
 </g>
</svg>
