<?xml version="1.0" encoding="utf-8"?>
<!-- Svg Vector Icons : http://www.onlinewebfonts.com/icon -->
<!DOCTYPE svg PUBLIC "-//W3C//DTD SVG 1.1//EN" "http://www.w3.org/Graphics/SVG/1.1/DTD/svg11.dtd">
<svg version="1.1" xmlns="http://www.w3.org/2000/svg" xmlns:xlink="http://www.w3.org/1999/xlink" x="0px" y="0px" viewBox="0 0 1000 1000" enable-background="new 0 0 1000 1000" xml:space="preserve">
<metadata> Svg Vector Icons : http://www.onlinewebfonts.com/icon </metadata>
<g><g transform="translate(0.000000,511.000000) scale(0.100000,-0.100000)"><path d="M4502.1,4987.3c-915.5-150.6-1700.8-659.2-2193.1-1415.9c-227.9-351.9-372.3-705.9-463.8-1139.3c-61-280.7-67.1-885-12.2-1169.8c91.6-480.1,231.9-887,484.2-1393.5c431.3-868.7,1080.3-1729.2,1961.1-2610.1c396.7-398.7,535-514.7,640.8-543.2c181.1-48.8,293,26.4,823.9,559.5C7063.4-1402.7,7891.4-70.2,8147.7,1146.3c48.8,229.9,54.9,303.1,54.9,665.3c0,345.8-6.1,439.4-46.8,620.5c-278.7,1300-1204.3,2239.9-2488.1,2524.7C5423.7,5011.7,4752.3,5028,4502.1,4987.3z M5484.7,4214.2c227.9-48.8,443.5-128.2,638.8-229.9c897.2-474,1422-1438.3,1318.3-2427C7336,536,6670.7-637.8,5472.5-1919.5c-246.2-262.5-339.7-327.6-472-327.6c-118,0-225.8,67.1-396.7,246.2C3173.6-499.5,2437.2,953.1,2557.2,2033.4c128.2,1145.4,974.5,2030.3,2107.6,2209.3C4835.7,4269.1,5307.7,4252.9,5484.7,4214.2z"/><path d="M4766.6,3113.6c-478.1-87.5-858.5-419.1-1017.2-887c-50.9-148.5-57-201.4-57-404.9c0-197.3,8.1-260.4,52.9-396.7c75.3-229.9,183.1-398.7,362.1-569.6c250.2-238,537.1-356,874.8-358c240.1-2,382.5,30.5,602.2,136.3c317.4,152.6,547.3,417.1,669.3,771c48.8,140.4,57,193.3,57,396.7c0,335.7-71.2,549.3-282.8,830c-179,238-494.4,429.3-797.5,482.2C5039.2,3148.2,4953.7,3148.2,4766.6,3113.6z M5159.2,2360.9c303.1-89.5,470-402.8,382.5-712c-65.1-223.8-301.1-396.7-541.2-396.7c-205.5,0-404.8,124.1-504.5,313.3c-44.8,85.4-54.9,130.2-54.9,256.3c0,134.3,8.1,168.8,63.1,264.5c77.3,134.3,175,217.7,317.4,266.5C4953.7,2399.5,5024.9,2399.5,5159.2,2360.9z"/><path d="M2569.4-2273.4c-356-187.2-569.6-382.5-693.7-636.8c-77.3-154.6-79.3-164.8-79.3-372.3c0-205.5,4.1-223.8,73.2-368.2c201.4-421.1,701.9-738.5,1485.1-944C3869.4-4731,4371.9-4790,5000.5-4790c1572.6,0,2801.4,447.6,3130.9,1139.3c69.2,144.4,73.2,162.7,73.2,368.2c0,205.5-2,219.7-75.3,368.2c-128.2,258.4-354,457.7-726.3,646.9c-148.5,73.3-185.1,85.4-270.6,77.3c-205.5-20.3-356-201.4-337.7-402.8c16.3-156.7,85.4-240.1,301.1-366.2c207.5-124.1,345.8-256.3,345.8-335.7c0-113.9-213.6-282.8-535-421.1c-472-203.4-1005-299.1-1757.7-315.3c-571.7-12.2-874.8,8.1-1304,87.5c-705.9,130.2-1306.1,429.3-1306.1,655.1c0,73.2,162.7,229.9,351.9,335.7c191.2,107.8,223.8,136.3,268.5,244.1c99.7,238-87.5,524.9-343.8,522.8C2758.6-2186,2683.3-2212.4,2569.4-2273.4z"/></g></g>
</svg>