<?xml version="1.0" encoding="utf-8"?>
<!-- Svg Vector Icons : http://www.onlinewebfonts.com/icon -->
<!DOCTYPE svg PUBLIC "-//W3C//DTD SVG 1.1//EN" "http://www.w3.org/Graphics/SVG/1.1/DTD/svg11.dtd">
<svg version="1.1" xmlns="http://www.w3.org/2000/svg" xmlns:xlink="http://www.w3.org/1999/xlink" x="0px" y="0px" viewBox="0 0 1000 1000" enable-background="new 0 0 1000 1000" xml:space="preserve">
<metadata> Svg Vector Icons : http://www.onlinewebfonts.com/icon </metadata>
<g><path d="M500,860.8c-6.5,0-12.8-2.9-17-7.9c-12.2-14.6-298.9-358.8-298.9-527.1C184.2,151.7,325.8,10,500,10c174.2,0,315.9,141.7,315.9,315.8c0,168.3-286.7,512.5-298.9,527.1C512.8,857.9,506.6,860.8,500,860.8z M500,54.3c-149.7,0-271.5,121.8-271.5,271.5c0,130.5,209.6,400.8,271.5,477.8c61.9-77,271.6-347.3,271.6-477.8C771.5,176.1,649.7,54.3,500,54.3z"/><path d="M504.2,432.2c-72.3,0-131.1-58.8-131.1-131.1c0-72.3,58.8-131.1,131.1-131.1c72.3,0,131,58.8,131,131.1C635.2,373.4,576.5,432.2,504.2,432.2z M504.2,214.4c-47.9,0-86.8,38.9-86.8,86.8s38.9,86.8,86.8,86.8c47.8,0,86.7-38.9,86.7-86.8C590.9,253.3,552,214.4,504.2,214.4z"/><path d="M500,990c-156.9,0-315.8-43.6-315.8-126.9c0-50.8,61.7-92.1,169.4-113.4c12-2.3,23.7,5.5,26,17.5c2.4,12-5.4,23.6-17.4,26c-87.8,17.4-133.7,48.3-133.7,69.9c0,33.7,105.8,82.6,271.5,82.6c165.8,0,271.6-48.9,271.6-82.6c0-21.3-45-52-131.1-69.4c-12-2.4-19.7-14.1-17.3-26.1c2.4-12,14.2-19.8,26.1-17.4c105.9,21.5,166.7,62.6,166.7,112.8C815.8,946.4,657,990,500,990z"/><path d="M363.9,770.3"/></g>
</svg>