<?xml version="1.0" encoding="utf-8"?>
<!-- Svg Vector Icons : http://www.onlinewebfonts.com/icon -->
<!DOCTYPE svg PUBLIC "-//W3C//DTD SVG 1.1//EN" "http://www.w3.org/Graphics/SVG/1.1/DTD/svg11.dtd">
<svg version="1.1" xmlns="http://www.w3.org/2000/svg" xmlns:xlink="http://www.w3.org/1999/xlink" x="0px" y="0px" viewBox="0 0 1000 1000" enable-background="new 0 0 1000 1000" xml:space="preserve">
<metadata> Svg Vector Icons : http://www.onlinewebfonts.com/icon </metadata>
<g><g transform="translate(0.000000,511.000000) scale(0.100000,-0.100000)"><path d="M3409.5,4956.9c-42.9-53.1-42.9-75.5-42.9-980V3050h-261.3c-289.9,0-449.2-30.6-596.2-116.4c-208.3-122.5-375.7-357.3-428.8-598.2c-16.3-81.7-22.5-375.7-16.3-1061.7c6.1-931,8.2-951.4,55.1-1092.3c55.1-165.4,124.5-310.3,208.3-432.8l59.2-85.8V-721v-383.8l-863.6-490c-826.9-469.6-867.7-496.1-1027-655.4C365.4-2378.8,312.3-2452.3,245-2587C108.2-2866.7,100-2926,100-3916.2V-4790h3430h3430v326.7v324.6l1421,6.1l1421,6.1l49,57.2l49,57.2v3477v3477l-53.1,55.1c-69.4,69.4-157.2,69.4-222.5,2l-51-49V-420.8v-3368.7H8266.7H6960v379.7c0,418.5-24.5,581.9-122.5,794.2c-77.6,173.5-226.6,359.3-371.6,469.6c-67.4,51-459.4,283.8-867.7,516.5L4853-1206.9l2031.5,6.1l2029.4,4.1l10.2,87.8c6.1,47,6.1,120.5,0,163.3l-8.2,75.5H6794.6H4673.3v267.5c0,236.8,4.1,273.6,42.9,326.7l40.8,59.2h2094.8c1900.8,0,2092.7,2,2080.4,32.7c-6.1,18.4-12.2,91.9-12.2,163.3V110H6919.2c-1100.5,0-2000.8,2-2000.8,6.1c0,2,14.3,51,32.7,106.2c16.3,57.2,36.7,200.1,42.9,322.6l12.2,218.5H6960h1955.9l8.2,138.8c6.1,75.5,6.1,149,0,163.3c-6.1,18.4-418.5,24.5-1966.1,24.5H5000v326.7v326.7h1958c1847.7,0,1957.9,2,1966.1,36.7c6.1,18.4,6.1,91.9,0,163.3l-8.2,126.6H6960H5004.1l-10.2,271.5c-6.1,147-18.4,294-24.5,326.7l-14.3,55.1h512.5H5980v163.3V3050h-592.1h-590l-47,61.3c-118.4,161.3-402.2,285.8-651.3,285.8c-134.8,0-140.9-2-140.9-49c0-153.1-69.4-243-218.5-287.9l-47-12.3v816.7v818.7h2070.3h2068.2l55.1,53.1c69.4,69.4,69.4,157.2,2,222.5l-49,51H5645.2H3450.4L3409.5,4956.9z M4389.5,2986.7c98-49,171.5-145,228.7-296c40.8-110.2,44.9-163.3,51-679.9c6.1-532.9,6.1-557.4-30.6-545.1c-157.2,61.3-279.7,73.5-710.5,73.5c-598.2-4.1-702.3,26.5-886.1,259.3c-134.8,173.5-212.3,167.4-341-24.5c-40.8-61.3-124.5-157.2-189.9-214.4l-114.3-100l-6.1,379.8c-6.1,457.3,14.3,551.3,145,694.2c153.1,167.4,196,177.6,769.7,189.9l502.3,10.2l132.7,65.3c112.3,55.1,138.8,79.6,177.6,161.3c44.9,91.9,49,93.9,120.5,79.6C4281.3,3031.6,4348.7,3009.2,4389.5,2986.7z M2999.2,1451.4c179.7-206.2,306.3-238.9,918.7-238.9c257.3,0,494.1-10.2,537-22.5c42.9-10.2,108.2-49,147-83.7l71.5-61.3V765.4c0-479.8-83.7-718.7-336.9-973.9c-230.7-234.8-475.7-334.8-816.7-334.8c-322.6,0-567.6,102.1-796.3,334.8c-261.3,263.4-336.9,485.9-336.9,969.8l2,298.1l136.8,96c75.5,55.1,198,157.2,269.5,230.7s134.8,132.7,138.8,132.7C2935.9,1518.8,2966.5,1488.1,2999.2,1451.4z M3166.6-839.4c177.6-40.8,549.2-40.8,726.8,0c75.5,18.4,208.3,67.4,296,108.2l157.2,77.6v-308.3v-306.2l-98-177.6c-140.9-263.4-243-390-496.1-628.8l-228.7-212.3L3342.2-2095c-228.7,243-453.2,537-553.3,726.8l-75.5,147v283.8v283.8l157.2-77.6C2958.3-772,3091-821,3166.6-839.4z M2254-1588.7c-47-134.7-194-702.3-194-749.3c0-179.7,167.4-349.1,345-349.1c34.7,0,202.1,69.4,387.9,163.3c181.7,89.8,336.9,163.3,343,163.3c8.2,0,63.3-47,122.5-106.2l108.2-106.2V-3518v-945.3H2550h-816.7v490v490H1570h-163.3v-490v-490h-490h-490v700.3c0,763.6,8.2,826.9,120.5,1051.5c79.6,157.2,204.2,294,349.1,383.8c161.3,100,1333.2,759.5,1351.6,761.6C2256-1564.2,2258-1576.4,2254-1588.7z M2858.3-1982.7l77.6-102.1l-269.5-134.7c-149-75.5-271.5-134.8-275.6-130.7c-6.1,4.1,165.4,686,191.9,763.6c6.1,18.4,49-36.8,104.1-132.7C2737.8-1807.1,2815.4-1925.5,2858.3-1982.7z M5612.5-2013.3c669.7-383.8,788.1-473.7,902.4-686c110.2-202.1,118.4-279.7,118.4-1053.5v-710.5h-488h-487.9l2,490l4.1,490h-167.4h-169.5v-490v-490H4510h-816.7v947.3v947.3l120.5,104.1c65.3,57.2,124.5,104.1,130.7,104.1c6.1,0,167.4-73.5,357.3-163.3c204.2-96,373.6-163.3,410.4-163.3c181.7,0,349.1,167.4,349.1,349.1c0,34.7-44.9,208.3-102.1,387.9c-55.1,179.7-102.1,336.9-102.1,347.1c0,12.3,30.6,4.1,67.4-16.3C4959.2-1639.7,5269.5-1817.3,5612.5-2013.3z M4642.7-2041.9c51-165.4,89.8-306.3,85.8-310.3c-4.1-4.1-134.8,51-287.9,124.5L4158.8-2095l96,108.2c53.1,57.2,134.8,161.3,179.7,228.7c77.6,114.3,83.7,118.4,98,71.5C4540.6-1715.3,4589.6-1874.5,4642.7-2041.9z"/><path d="M4071-3207.7c-102.1-100-30.6-275.6,112.3-275.6c38.8,0,81.7,18.4,112.3,51c32.7,30.6,51,73.5,51,112.3s-18.4,81.7-51,112.3c-30.6,32.7-73.5,51-112.3,51C4144.5-3156.7,4101.7-3175,4071-3207.7z"/><path d="M4071-3861c-102.1-100-30.6-275.6,112.3-275.6c83.7,0,163.3,79.6,163.3,163.3S4267-3810,4183.3-3810C4144.5-3810,4101.7-3828.4,4071-3861z"/><path d="M8309.5,4956.9c-40.8-53.1-42.9-77.6-42.9-763.6v-708.5l53.1-55.1l55.1-53.1h708.5h708.5l42.9,47c24.5,26.5,51,77.6,57.2,114.3c14.3,65.3,2.1,79.6-688,769.7c-667.6,667.6-706.4,702.3-777.9,702.3C8368.7,5010,8340.2,4997.7,8309.5,4956.9z M8971,4070.8l367.5-367.5h-373.6h-371.6v367.5c0,202.1,2,367.5,6.1,367.5C8601.5,4438.3,8768.9,4273,8971,4070.8z"/><path d="M6470,3376.7V2560h816.7h816.7v816.7v816.7h-816.7H6470V3376.7z M7776.7,3376.7v-490h-490h-490v490v490h490h490V3376.7z"/><path d="M4346.7,3866.7v-163.3h816.7H5980v163.3V4030h-816.7h-816.7V3866.7z"/><path d="M7613.3-2013.3v-163.3h651.3h651.3l8.2,163.3l6.1,163.3h-657.4h-659.5V-2013.3z"/></g></g>
</svg>