<?xml version="1.0" encoding="UTF-8" standalone="no"?>
<!-- Svg Vector Icons : http://www.onlinewebfonts.com/icon -->

<svg
   version="1.1"
   x="0px"
   y="0px"
   viewBox="0 0 1000 1000"
   enable-background="new 0 0 1000 1000"
   xml:space="preserve"
   id="svg10"
   sodipodi:docname="4f1831a452c709bff7d289666f2aece5.svg"
   inkscape:version="1.1 (c68e22c387, 2021-05-23)"
   xmlns:inkscape="http://www.inkscape.org/namespaces/inkscape"
   xmlns:sodipodi="http://sodipodi.sourceforge.net/DTD/sodipodi-0.dtd"
   xmlns="http://www.w3.org/2000/svg"
   xmlns:svg="http://www.w3.org/2000/svg"><defs
   id="defs14" /><sodipodi:namedview
   id="namedview12"
   pagecolor="#ffffff"
   bordercolor="#666666"
   borderopacity="1.0"
   inkscape:pageshadow="2"
   inkscape:pageopacity="0.0"
   inkscape:pagecheckerboard="0"
   showgrid="false"
   inkscape:zoom="0.873"
   inkscape:cx="500"
   inkscape:cy="500"
   inkscape:window-width="2560"
   inkscape:window-height="1377"
   inkscape:window-x="3432"
   inkscape:window-y="-8"
   inkscape:window-maximized="1"
   inkscape:current-layer="svg10" />
<metadata
   id="metadata2"> Svg Vector Icons : http://www.onlinewebfonts.com/icon </metadata>
<g
   id="g8"
   style="fill:#3b3b3b;fill-opacity:1"><path
     d="M815,780c-19.3,0-35-15.7-35-35c0-19.3,15.7-35,35-35c19.3,0,35-15.7,35-35V115c0-19.3-15.7-35-35-35H395c-19.3,0-35,15.7-35,35c0,19.3-15.7,35-35,35c-19.3,0-35-15.7-35-35c0-57.9,47.1-105,105-105h420c57.9,0,105,47.1,105,105v560C920,732.9,872.9,780,815,780z"
     id="path4"
     style="fill:#3b3b3b;fill-opacity:1" /><path
     d="M605,990H185c-57.9,0-105-47.1-105-105V325c0-57.9,47.1-105,105-105h420c57.9,0,105,47.1,105,105v560C710,942.9,662.9,990,605,990z M185,290c-19.3,0-35,15.7-35,35v560c0,19.3,15.7,35,35,35h420c19.3,0,35-15.7,35-35V325c0-19.3-15.7-35-35-35H185z"
     id="path6"
     style="fill:#3b3b3b;fill-opacity:1" /></g>
</svg>
