<?xml version="1.0" encoding="UTF-8" standalone="no"?>
<!-- Svg Vector Icons : http://www.onlinewebfonts.com/icon -->

<svg
   version="1.1"
   x="0px"
   y="0px"
   viewBox="0 0 1000 1000"
   enable-background="new 0 0 1000 1000"
   xml:space="preserve"
   id="svg8"
   sodipodi:docname="plus.svg"
   inkscape:version="1.1 (c68e22c387, 2021-05-23)"
   xmlns:inkscape="http://www.inkscape.org/namespaces/inkscape"
   xmlns:sodipodi="http://sodipodi.sourceforge.net/DTD/sodipodi-0.dtd"
   xmlns="http://www.w3.org/2000/svg"
   xmlns:svg="http://www.w3.org/2000/svg"><defs
   id="defs12" /><sodipodi:namedview
   id="namedview10"
   pagecolor="#ffffff"
   bordercolor="#666666"
   borderopacity="1.0"
   inkscape:pageshadow="2"
   inkscape:pageopacity="0.0"
   inkscape:pagecheckerboard="0"
   showgrid="false"
   inkscape:zoom="0.873"
   inkscape:cx="500"
   inkscape:cy="500"
   inkscape:window-width="3440"
   inkscape:window-height="1377"
   inkscape:window-x="-8"
   inkscape:window-y="-8"
   inkscape:window-maximized="1"
   inkscape:current-layer="svg8" />
<metadata
   id="metadata2"> Svg Vector Icons : http://www.onlinewebfonts.com/icon </metadata>
<g
   id="g6"
   style="fill:#1856dc;fill-opacity:1"><path
     d="M900.9,366.4H633.6V99.1c0-49.2-39.8-89.1-89.1-89.1h-89.1c-49.2,0-89.1,39.9-89.1,89.1v267.3H99.1c-49.2,0-89.1,39.9-89.1,89.1v89.1c0,49.2,39.9,89.1,89.1,89.1h267.3v267.3c0,49.2,39.8,89.1,89.1,89.1h89.1c49.2,0,89.1-39.9,89.1-89.1V633.6h267.3c49.2,0,89.1-39.9,89.1-89.1v-89.1C990,406.3,950.2,366.4,900.9,366.4z"
     id="path4"
     style="fill:#1856dc;fill-opacity:1" /></g>
</svg>
